<svg xmlns="http://www.w3.org/2000/svg" xmlns:svgjs="http://svgjs.com/svgjs" xmlns:xlink="http://www.w3.org/1999/xlink" width="288" height="288"><svg xmlns="http://www.w3.org/2000/svg" width="288" height="288" enable-background="new 0 0 420.012 420.012" viewBox="0 0 420.012 420.012"><path fill="#fff" d="M0,40v340.012h420.012V40H0z M390,350H30.012V70.012H390V350z" class="color000 svgShape"/><path fill="#fff" d="M145,127.005v166.001l145.251-83.001L145,127.005z M229.76,210.006l-54.749,31.285v-62.569L229.76,210.006
		z" class="color000 svgShape"/><polygon fill="#fff" points="360.006 135.006 360.006 105.006 360.006 105 320.006 105 320.006 105.006 320.006 135.006 320.006 135.012 360.006 135.012" class="color000 svgShape"/><polygon fill="#fff" points="360.006 195.006 360.006 165.006 360.006 165 320.006 165 320.006 165.006 320.006 195.006 320.006 195.012 360.006 195.012" class="color000 svgShape"/><polygon fill="#fff" points="360.006 255.006 360.006 225.006 360.006 225 320.006 225 320.006 225.006 320.006 255.006 320.006 255.012 360.006 255.012" class="color000 svgShape"/><polygon fill="#fff" points="360.006 315.006 360.006 285.006 360.006 285 320.006 285 320.006 285.006 320.006 315.006 320.006 315.012 360.006 315.012" class="color000 svgShape"/><polygon fill="#fff" points="100.006 135.006 100.006 105.006 100.006 105 60.006 105 60.006 105.006 60.006 135.006 60.006 135.012 100.006 135.012" class="color000 svgShape"/><polygon fill="#fff" points="100.006 195.006 100.006 165.006 100.006 165 60.006 165 60.006 165.006 60.006 195.006 60.006 195.012 100.006 195.012" class="color000 svgShape"/><polygon fill="#fff" points="100.006 255.006 100.006 225.006 100.006 225 60.006 225 60.006 225.006 60.006 255.006 60.006 255.012 100.006 255.012" class="color000 svgShape"/><polygon fill="#fff" points="100.006 315.006 100.006 285.006 100.006 285 60.006 285 60.006 285.006 60.006 315.006 60.006 315.012 100.006 315.012" class="color000 svgShape"/></svg></svg>